<?xml version="1.0" encoding="UTF-8"?>
<svg width="39px" height="23px" viewBox="0 0 39 23" version="1.1" xmlns="http://www.w3.org/2000/svg" xmlns:xlink="http://www.w3.org/1999/xlink">
    <!-- Generator: Sketch 54.1 (76490) - https://sketchapp.com -->
    <title>BM</title>
    <desc>Created with Sketch.</desc>
    <g id="Page-1" stroke="none" stroke-width="1" fill="none" fill-rule="evenodd">
        <g id="Desktop" transform="translate(-279.000000, -37.000000)" fill-rule="nonzero">
            <g id="Group-4" transform="translate(279.000000, 32.000000)">
                <g id="BM" transform="translate(0.176000, 5.600000)">
                    <path d="M0.8,22.4 C0.5866656,22.4 0.4000008,22.3200008 0.24,22.16 C0.0799992,21.9999992 -5.32907052e-15,21.8133344 -5.32907052e-15,21.6 L-5.32907052e-15,0.832 C-5.32907052e-15,0.59733216 0.07466592,0.4000008 0.224,0.24 C0.37333408,0.0799992 0.56533216,4.97379915e-14 0.8,4.61852778e-14 L10.688,4.61852778e-14 C13.3973469,4.97379915e-14 15.4133267,0.55466112 16.736,1.664 C18.0586733,2.77333888 18.72,4.35198976 18.72,6.4 C18.72,7.42400512 18.4480027,8.3093296 17.904,9.056 C17.3599973,9.8026704 16.7573366,10.346665 16.096,10.688 C16.970671,11.0720019 17.7066637,11.7066622 18.304,12.592 C18.9013363,13.4773378 19.2,14.4746611 19.2,15.584 C19.2,17.7386774 18.4906738,19.4133274 17.072,20.608 C15.6533262,21.8026726 13.6213466,22.4 10.976,22.4 L0.8,22.4 Z M10.016,8.864 C10.8053373,8.864 11.4133312,8.6506688 11.84,8.224 C12.2666688,7.7973312 12.48,7.24267008 12.48,6.56 C12.48,5.89866336 12.2720021,5.36000208 11.856,4.944 C11.4399979,4.52799792 10.8266707,4.32 10.016,4.32 L6.016,4.32 L6.016,8.864 L10.016,8.864 Z M10.304,18.08 C11.1360042,18.08 11.781331,17.8400024 12.24,17.36 C12.698669,16.8799976 12.928,16.2880035 12.928,15.584 C12.928,14.858663 12.6933357,14.2560024 12.224,13.776 C11.7546643,13.2959976 11.1146707,13.056 10.304,13.056 L6.016,13.056 L6.016,18.08 L10.304,18.08 Z" fill="#ECA931" style="mix-blend-mode: difference;"></path>
                    <path d="M16.456,22.4 C16.2213322,22.4 16.0240008,22.3253341 15.864,22.176 C15.7039992,22.0266659 15.624,21.8346678 15.624,21.6 L15.624,0.832 C15.624,0.59733216 15.7039992,0.4000008 15.864,0.24 C16.0240008,0.0799992 16.2213322,4.97379915e-14 16.456,4.61852778e-14 L20.072,4.61852778e-14 C20.605336,4.97379915e-14 20.9893322,0.23466432 21.224,0.704 L26.728,10.56 L32.264,0.704 C32.4986678,0.23466432 32.882664,4.97379915e-14 33.416,4.61852778e-14 L37.032,4.61852778e-14 C37.2666678,4.97379915e-14 37.4639992,0.0799992 37.624,0.24 C37.7840008,0.4000008 37.864,0.59733216 37.864,0.832 L37.864,21.6 C37.864,21.8346678 37.7840008,22.0266659 37.624,22.176 C37.4639992,22.3253341 37.2666678,22.4 37.032,22.4 L32.968,22.4 C32.7546656,22.4 32.5680008,22.3200008 32.408,22.16 C32.2479992,21.9999992 32.168,21.8133344 32.168,21.6 L32.168,9.952 L28.712,16.288 C28.4346653,16.7786691 28.0613357,17.024 27.592,17.024 L25.864,17.024 C25.4373312,17.024 25.0640016,16.7786691 24.744,16.288 L21.32,9.952 L21.32,21.6 C21.32,21.8346678 21.2400008,22.0266659 21.08,22.176 C20.9199992,22.3253341 20.7226678,22.4 20.488,22.4 L16.456,22.4 Z" id="Path" fill="#42CFA4" style="mix-blend-mode: difference;"></path>
                </g>
            </g>
        </g>
    </g>
</svg>